<?xml version="1.0" encoding="UTF-8" standalone="no"?>
<svg
   viewBox="834 99 132 136"
   width="132"
   height="136"
   version="1.1"
   id="svg46"
   xmlns="http://www.w3.org/2000/svg"
   xmlns:svg="http://www.w3.org/2000/svg">
  <defs
     id="defs21">
    <linearGradient
       id="statsFill"
       x1="0"
       y1="0"
       x2="0"
       y2="1">
      <stop
         offset="0"
         stop-color="#9ed75d"
         id="stop2" />
      <stop
         offset="0.3"
         stop-color="#78bd43"
         id="stop4" />
      <stop
         offset="0.76"
         stop-color="#5a9d30"
         id="stop6" />
      <stop
         offset="1"
         stop-color="#427d23"
         id="stop8" />
    </linearGradient>
    <linearGradient
       id="buttonGloss"
       x1="0"
       y1="0"
       x2="0"
       y2="1">
      <stop
         offset="0"
         stop-color="#ffffff"
         stop-opacity="0.78"
         id="stop11" />
      <stop
         offset="0.58"
         stop-color="#ffffff"
         stop-opacity="0.34"
         id="stop13" />
      <stop
         offset="1"
         stop-color="#ffffff"
         stop-opacity="0"
         id="stop15" />
    </linearGradient>
    <clipPath
       id="statsClip">
      <rect
         x="836"
         y="101"
         width="128"
         height="128"
         rx="32"
         id="rect18" />
    </clipPath>
  </defs>
  <g
     id="g44">
    <g
       id="button-stats">
      <path
         id="rect23"
         style="fill:#315f1d;fill-opacity:0.24"
         d="m 868,105 h 64 c 17.728,0 32,14.272 32,32 v 64 c 0,17.728 -14.272,32 -32,32 h -64 c -17.728,0 -32,-14.272 -32,-32 v -64 c 0,-17.728 14.272,-32 32,-32 z" />
      <path
         id="rect25"
         style="fill:url(#statsFill);stroke:#3f7424;stroke-width:2.4"
         d="m 868,101 h 64 c 17.728,0 32,14.272 32,32 v 64 c 0,17.728 -14.272,32 -32,32 h -64 c -17.728,0 -32,-14.272 -32,-32 v -64 c 0,-17.728 14.272,-32 32,-32 z" />
      <g
         clip-path="url(#statsClip)"
         id="g29">
        <path
           d="m 838,103 h 124 v 42 q -62,-19 -124,0 z"
           fill="url(#buttonGloss)"
           id="path27" />
      </g>
      <path
         id="rect31"
         style="fill:#ffffff"
         d="m 872,139 h 6 c 2.216,0 4,1.784 4,4 v 24 c 0,2.216 -1.784,4 -4,4 h -6 c -2.216,0 -4,-1.784 -4,-4 v -24 c 0,-2.216 1.784,-4 4,-4 z" />
      <path
         id="rect33"
         style="fill:#ffffff"
         d="m 897,124 h 6 c 2.216,0 4,1.784 4,4 v 39 c 0,2.216 -1.784,4 -4,4 h -6 c -2.216,0 -4,-1.784 -4,-4 v -39 c 0,-2.216 1.784,-4 4,-4 z" />
      <path
         id="rect35"
         style="fill:#ffffff"
         d="m 922,133 h 6 c 2.216,0 4,1.784 4,4 v 30 c 0,2.216 -1.784,4 -4,4 h -6 c -2.216,0 -4,-1.784 -4,-4 v -30 c 0,-2.216 1.784,-4 4,-4 z" />
      <path
         d="m 871,142 v 9 m 25,-24 v 12 m 25,-3 v 10"
         fill="none"
         stroke="#e8f8dc"
         stroke-opacity="0.7"
         stroke-width="2"
         stroke-linecap="round"
         id="path37" />
      <path
         d="m 853,182 h 94"
         fill="none"
         stroke="#effbe7"
         stroke-opacity="0.38"
         stroke-width="1.2"
         id="path39" />
      <g
         aria-label="Stats"
         id="text41"
         style="font-weight:700;font-size:28px;font-family:'DejaVu Sans';dominant-baseline:central;text-anchor:middle;fill:#ffffff">
        <path
           d="m 875.52734,190.50391 v 4.32031 q -1.68164,-0.75195 -3.28125,-1.13477 -1.59961,-0.38281 -3.02148,-0.38281 -1.88672,0 -2.78906,0.51953 -0.90235,0.51953 -0.90235,1.61328 0,0.82032 0.60157,1.28516 0.61523,0.45117 2.21484,0.7793 l 2.24219,0.45117 q 3.40429,0.68359 4.83984,2.07812 1.43555,1.39453 1.43555,3.96485 0,3.37695 -2.00977,5.03125 -1.99609,1.64062 -6.11133,1.64062 -1.9414,0 -3.89648,-0.36914 -1.95508,-0.36914 -3.91016,-1.09375 v -4.44336 q 1.95508,1.03906 3.77344,1.57227 1.83203,0.51953 3.52734,0.51953 1.72266,0 2.63868,-0.57422 0.91601,-0.57422 0.91601,-1.64063 0,-0.95703 -0.6289,-1.47656 -0.61524,-0.51953 -2.47461,-0.92969 l -2.03711,-0.45117 q -3.0625,-0.65625 -4.48438,-2.09179 -1.4082,-1.43555 -1.4082,-3.86914 0,-3.04883 1.96875,-4.68946 1.96875,-1.64062 5.66015,-1.64062 1.68165,0 3.45899,0.25976 1.77734,0.2461 3.67773,0.75196 z"
           id="path55" />
        <path
           d="m 886.61523,190.61328 v 4.34766 h 5.04493 v 3.5 h -5.04493 v 6.49414 q 0,1.0664 0.42383,1.44922 0.42383,0.36914 1.68164,0.36914 h 2.51563 v 3.5 h -4.19727 q -2.89844,0 -4.11523,-1.20313 -1.20313,-1.21679 -1.20313,-4.11523 v -6.49414 h -2.43359 v -3.5 h 2.43359 v -4.34766 z"
           id="path57" />
        <path
           d="m 901.51758,203.38281 q -1.53125,0 -2.31055,0.51953 -0.76562,0.51953 -0.76562,1.53125 0,0.92969 0.61523,1.46289 0.62891,0.51954 1.73633,0.51954 1.38086,0 2.32422,-0.98438 0.94336,-0.99805 0.94336,-2.48828 v -0.56055 z m 7.47851,-1.8457 v 8.73633 h -4.93554 v -2.26953 q -0.98438,1.39453 -2.21485,2.03711 -1.23047,0.6289 -2.99414,0.6289 -2.3789,0 -3.86914,-1.38086 -1.47656,-1.39453 -1.47656,-3.60937 0,-2.69336 1.8457,-3.95117 1.85938,-1.25782 5.82422,-1.25782 h 2.88477 v -0.38281 q 0,-1.16211 -0.91602,-1.69531 -0.91601,-0.54688 -2.85742,-0.54688 -1.57227,0 -2.92578,0.31446 -1.35352,0.31445 -2.51563,0.94336 v -3.73243 q 1.57227,-0.38281 3.15821,-0.57422 1.58593,-0.20507 3.17187,-0.20507 4.14258,0 5.97461,1.64062 1.8457,1.62695 1.8457,5.30469 z"
           id="path59" />
        <path
           d="m 918.89453,190.61328 v 4.34766 h 5.04492 v 3.5 h -5.04492 v 6.49414 q 0,1.0664 0.42383,1.44922 0.42383,0.36914 1.68164,0.36914 h 2.51562 v 3.5 h -4.19726 q -2.89844,0 -4.11524,-1.20313 Q 914,207.85352 914,204.95508 v -6.49414 h -2.43359 v -3.5 H 914 v -4.34766 z"
           id="path61" />
        <path
           d="m 938.89648,195.43945 v 3.71875 q -1.57226,-0.65625 -3.03515,-0.98437 -1.46289,-0.32813 -2.76172,-0.32813 -1.39453,0 -2.07813,0.35547 -0.66992,0.3418 -0.66992,1.06641 0,0.58789 0.50586,0.90234 0.51953,0.31445 1.8457,0.46485 l 0.86133,0.12304 q 3.75977,0.47852 5.0586,1.57227 1.29882,1.09375 1.29882,3.43164 0,2.44726 -1.80468,3.67773 -1.80469,1.23047 -5.38672,1.23047 -1.51758,0 -3.14453,-0.24609 -1.61328,-0.23242 -3.32227,-0.71094 v -3.71875 q 1.46289,0.71094 2.99414,1.06641 1.54492,0.35547 3.13086,0.35547 1.43555,0 2.16016,-0.39649 0.72461,-0.39648 0.72461,-1.17578 0,-0.65625 -0.50586,-0.9707 -0.49219,-0.32813 -1.98242,-0.50586 l -0.86133,-0.10938 q -3.26758,-0.41015 -4.58008,-1.51758 -1.3125,-1.10742 -1.3125,-3.36328 0,-2.43359 1.66797,-3.60937 1.66797,-1.17578 5.11328,-1.17578 1.35352,0 2.84375,0.20507 1.49023,0.20508 3.24023,0.64258 z"
           id="path63" />
      </g>
    </g>
  </g>
</svg>
